<?xml version="1.0" standalone="no"?><!DOCTYPE svg PUBLIC "-//W3C//DTD SVG 1.1//EN" "http://www.w3.org/Graphics/SVG/1.1/DTD/svg11.dtd"><svg t="1695821991335" class="icon" viewBox="0 0 1024 1024" version="1.1" xmlns="http://www.w3.org/2000/svg" p-id="2809" xmlns:xlink="http://www.w3.org/1999/xlink" width="200" height="200"><path d="M726.222536 1024H297.777464A32.03714 32.03714 0 0 1 265.779079 992.001615V31.998385A32.03714 32.03714 0 0 1 297.777464 0h428.445072a32.03714 32.03714 0 0 1 31.998385 31.998385v960.00323a32.03714 32.03714 0 0 1-31.998385 31.998385zM297.777464 28.44588a3.552505 3.552505 0 0 0-3.552506 3.552505v960.00323a3.552505 3.552505 0 0 0 3.552506 3.552505h428.445072a3.565424 3.565424 0 0 0 3.565424-3.552505V31.998385a3.565424 3.565424 0 0 0-3.565424-3.552505z" fill="#1A1A1A" p-id="2810"></path><path d="M688.888934 325.331988H335.111066a7.105011 7.105011 0 0 1-7.105011-7.105011V69.331988a7.105011 7.105011 0 0 1 7.105011-7.105011h353.777868a7.105011 7.105011 0 0 1 7.105011 7.105011v248.894989a7.105011 7.105011 0 0 1-7.105011 7.105011z m-346.659939-14.210022h339.54201V76.449917H342.228995z" fill="#1A1A1A" p-id="2811"></path><path d="M688.901852 77.341273H335.111066a7.117929 7.117929 0 0 1 0-14.210022h353.790786a7.117929 7.117929 0 0 1 0 14.210022zM688.901852 201.433517H335.111066a7.117929 7.117929 0 0 1 0-14.210022h353.790786a7.117929 7.117929 0 0 1 0 14.210022zM688.901852 263.46672H335.111066a7.117929 7.117929 0 0 1 0-14.210021h353.790786a7.117929 7.117929 0 0 1 0 14.210021zM688.901852 139.387395H335.111066a7.117929 7.117929 0 0 1 0-14.210022h353.790786a7.117929 7.117929 0 0 1 0 14.210022zM688.901852 325.512843H335.111066a7.117929 7.117929 0 0 1 0-14.210022h353.790786a7.117929 7.117929 0 0 1 0 14.210022z" fill="#1A1A1A" p-id="2812"></path><path d="M397.028006 369.783519c0 4.88308-3.423323 8.83605-7.647575 8.83605s-7.660494-3.95297-7.660494-8.83605" fill="#9B9696" p-id="2813"></path><path d="M389.380431 383.954786c-7.169602 0-12.995711-6.355755-12.995711-14.210021s5.826109-14.210022 12.995711-14.210022 12.918202 6.355755 12.918201 14.210022-5.696927 14.210022-12.918201 14.210021z m0-17.672099c-1.098047 0-2.325276 1.498511-2.325276 3.500832s1.227229 3.500833 2.325276 3.500833 2.312358-1.498511 2.312358-3.500833-1.227229-3.500833-2.312358-3.500832z" fill="#1A1A1A" p-id="2814"></path><path d="M355.922289 369.783519c0 4.88308-3.423323 8.83605-7.660494 8.83605s-7.647575-3.95297-7.647575-8.83605" fill="#9B9696" p-id="2815"></path><path d="M348.261795 383.954786c-7.156684 0-12.982793-6.355755-12.982792-14.210021s5.826109-14.210022 12.982792-14.210022 12.995711 6.355755 12.995711 14.210022-5.826109 14.210022-12.995711 14.210021z m0-17.672099c-1.085129 0-2.312358 1.498511-2.312358 3.500832s1.227229 3.500833 2.312358 3.500833 2.325276-1.498511 2.325277-3.500833-1.227229-3.500833-2.325277-3.500832z" fill="#1A1A1A" p-id="2816"></path><path d="M683.38578 369.783519c0 4.88308-3.436242 8.83605-7.660494 8.83605s-7.647575-3.95297-7.647575-8.83605" fill="#9B9696" p-id="2817"></path><path d="M675.738205 383.954786c-7.156684 0-12.982793-6.355755-12.982793-14.210021s5.826109-14.210022 12.982793-14.210022 12.918202 6.355755 12.918201 14.210022-5.761518 14.210022-12.918201 14.210021z m0-17.672099c-1.085129 0-2.312358 1.498511-2.312359 3.500832s1.29182 3.500833 2.312359 3.500833 2.325276-1.498511 2.325276-3.500833-1.227229-3.500833-2.325276-3.500832z" fill="#1A1A1A" p-id="2818"></path><path d="M642.292981 369.783519c0 4.88308-3.436242 8.83605-7.660494 8.83605s-7.647575-3.95297-7.647575-8.83605" fill="#9B9696" p-id="2819"></path><path d="M634.632487 383.954786c-7.156684 0-12.918202-6.355755-12.918201-14.210021s5.826109-14.210022 12.918201-14.210022 12.995711 6.355755 12.995711 14.210022-5.826109 14.210022-12.995711 14.210021z m0-17.672099c-1.085129 0-2.312358 1.498511-2.312358 3.500832s1.227229 3.500833 2.312358 3.500833 2.325276-1.498511 2.325277-3.500833-1.227229-3.500833-2.325277-3.500832z" fill="#1A1A1A" p-id="2820"></path><path d="M437.591159 355.431397m2.376949 0l149.98032 0q2.376949 0 2.376949 2.376949l0 23.937428q0 2.376949-2.376949 2.376949l-149.98032 0q-2.376949 0-2.376949-2.376949l0-23.937428q0-2.376949 2.376949-2.376949Z" fill="#1A1A1A" p-id="2821"></path><path d="M511.780391 384.122723h36.041782l14.352122-28.691326h-36.041783l-14.352121 28.691326zM489.057274 384.122723l14.352122-28.691326h-17.207044l-14.339204 28.691326h17.194126z" fill="#FFFFFF" opacity=".13" p-id="2822"></path><path d="M585.775849 391.240652H444.140687a13.667457 13.667457 0 0 1-13.654539-13.654539v-15.605188a13.667457 13.667457 0 0 1 13.654539-13.654539h141.635162a13.667457 13.667457 0 0 1 13.641621 13.654539v15.605188a13.667457 13.667457 0 0 1-13.641621 13.654539z m-141.079679-14.210022h140.511278v-14.468385H444.69617z" p-id="2823"></path><path d="M281.487612 719.995963h462.226169v14.22294H281.487612z" fill="#1A1A1A" p-id="2824"></path></svg>