<?xml version="1.0" standalone="no"?><!DOCTYPE svg PUBLIC "-//W3C//DTD SVG 1.1//EN" "http://www.w3.org/Graphics/SVG/1.1/DTD/svg11.dtd"><svg t="1697115691032" class="icon" viewBox="0 0 1024 1024" version="1.1" xmlns="http://www.w3.org/2000/svg" p-id="1737" xmlns:xlink="http://www.w3.org/1999/xlink" width="200" height="200"><path d="M297.6256 387.8912c-65.6384 0-119.04-51.968-119.04-115.8656 0-63.9488 53.4016-115.9168 119.04-115.9168 65.536 0 118.9888 51.968 118.9888 115.9168 0 63.8976-53.4016 115.8656-119.04 115.8656z m0-191.7952c-43.6224 0-79.0016 33.9968-79.0016 75.8784 0 41.8304 35.4816 75.9296 79.0016 75.9296s78.9504-33.9968 78.9504-75.8784c0-41.8304-35.4816-75.9296-79.0016-75.9296z" fill="#515151" p-id="1738"></path><path d="M485.4784 568.32h-39.936V488.96a97.536 97.536 0 0 0-97.4336-97.3824H246.8864A97.536 97.536 0 0 0 149.504 489.0112V568.32h-39.9872V488.96a137.5744 137.5744 0 0 1 137.3696-137.3696h101.3248a137.5744 137.5744 0 0 1 137.3696 137.4208V568.32h-0.1024z m255.3344-180.4288c-65.5872 0-118.9888-51.968-118.9888-115.8656 0-63.9488 53.4016-115.9168 118.9888-115.9168s118.9888 51.968 118.9888 115.9168c0 63.8976-53.4016 115.8656-118.9888 115.8656z m0-191.7952c-43.6224 0-79.0016 33.9968-79.0016 75.8784 0 41.8304 35.4816 75.9296 79.0016 75.9296s79.0016-33.9968 79.0016-75.8784c0-41.8304-35.5328-75.9296-79.0016-75.9296z" fill="#515151" p-id="1739"></path><path d="M928.768 568.32h-39.936V488.96a97.536 97.536 0 0 0-97.4336-97.3824h-101.2736a97.536 97.536 0 0 0-97.4336 97.4336V568.32h-39.9872V488.96a137.5744 137.5744 0 0 1 137.4208-137.3696h101.2736a137.5744 137.5744 0 0 1 137.4208 137.4208V568.32z" fill="#515151" p-id="1740"></path><path d="M996.5056 722.1248H33.5872a20.0704 20.0704 0 0 1-19.968-20.0192v-117.6064c0-11.008 8.96-19.968 19.968-19.968h962.9184c11.008 0 19.968 8.96 19.968 19.968v117.7088a19.968 19.968 0 0 1-19.968 19.9168z m-942.8992-40.0384h922.88v-77.6704H53.6064v77.6704z" fill="#515151" p-id="1741"></path><path d="M125.44 926.3104a20.0704 20.0704 0 0 1-20.0192-19.968v-186.2656c0-10.9568 8.96-19.968 19.968-19.968 11.008 0 19.968 9.0112 19.968 19.968v186.2144a19.968 19.968 0 0 1-19.968 19.968z m779.1616 0a20.0704 20.0704 0 0 1-19.968-19.968v-204.288c0-10.9568 8.96-19.968 19.968-19.968 11.008 0 19.968 9.0112 19.968 19.968v204.288a19.968 19.968 0 0 1-19.968 19.968z" fill="#515151" p-id="1742"></path></svg>