<?xml version="1.0" standalone="no"?><!DOCTYPE svg PUBLIC "-//W3C//DTD SVG 1.1//EN" "http://www.w3.org/Graphics/SVG/1.1/DTD/svg11.dtd"><svg t="1697098837208" class="icon" viewBox="0 0 1024 1024" version="1.1" xmlns="http://www.w3.org/2000/svg" p-id="1028" xmlns:xlink="http://www.w3.org/1999/xlink" width="200" height="200"><path d="M238.139535 273.860465C238.139535 122.88 361.019535 0 512 0s273.860465 122.88 273.860465 273.860465-122.88 273.860465-273.860465 273.860465-273.860465-122.88-273.860465-273.860465z m71.44186 0A202.894884 202.894884 0 0 0 512 476.27907a202.894884 202.894884 0 0 0 202.418605-202.418605A202.894884 202.894884 0 0 0 512 71.44186a202.894884 202.894884 0 0 0-202.418605 202.418605z" fill="#292D32" p-id="1029"></path><path d="M885.402791 988.27907c0-164.316279-167.650233-297.674419-373.402791-297.674419S138.597209 823.962791 138.597209 988.27907c0 19.527442-16.193488 35.72093-35.72093 35.72093S67.155349 1007.806512 67.155349 988.27907C67.155349 784.907907 266.716279 619.162791 512 619.162791c245.283721 0 444.844651 165.745116 444.844651 369.116279 0 19.527442-16.193488 35.72093-35.72093 35.72093s-35.72093-16.193488-35.72093-35.72093z" fill="#292D32" p-id="1030"></path></svg>